<?xml version="1.0" encoding="utf-8"?>
<!-- Generator: Adobe Illustrator 26.0.1, SVG Export Plug-In . SVG Version: 6.00 Build 0)  -->
<svg version="1.1" id="katman_1" xmlns="http://www.w3.org/2000/svg" xmlns:xlink="http://www.w3.org/1999/xlink" x="0px" y="0px"
	 viewBox="0 0 128 128" style="enable-background:new 0 0 128 128;" xml:space="preserve">
<style type="text/css">
	.st0{fill:#EDB400;}
	.st1{fill:#000C1B;}
</style>
<g>
	<path class="st0" d="M14.83,27.32c7.94-4.72,50.86-27.49,98.33,0.08c0.79,0.46,1.28,1.31,1.28,2.23
		c0.01,8.69-2.31,53.52-49.2,83.97c-0.8,0.52-1.82,0.55-2.65,0.09c-7.84-4.36-46.63-28.69-49.01-84.04
		C13.53,28.69,14.01,27.8,14.83,27.32z"/>
	<path class="st1" d="M15.72,29.45c3.68-2.33,47.7-28.94,96.49,0.02c0.15,0.09,0.25,0.25,0.25,0.43c0.14,4.07,0.62,51.27-48.25,82.3
		c-0.15,0.1-0.35,0.11-0.51,0.02c-3.75-1.93-46.31-25.02-48.22-82.31C15.47,29.72,15.56,29.55,15.72,29.45z"/>
	<path class="st0" d="M41.46,46.06c0,0,27.1-13.65,55.9,6.1c0,0,1.53-6.51,1.37-13.25c0,0-33.54-20.8-69.49,0
		c0,0-1.45,38.71,34.58,59.75c0,0,5.63-2.89,10.94-7.63c0,0-16.17-6.59-25.34-22.49c0,0,19.95-10.44,38.69,6.83
		c0,0,3.54-5.22,5.63-10.92c0,0-20.51-19.35-49.46-6.75C44.27,57.7,42.1,52.16,41.46,46.06z"/>
</g>
</svg>
